<?xml version="1.0" encoding="iso-8859-1"?>
<!-- Uploaded to: SVG Repo, www.svgrepo.com, Generator: SVG Repo Mixer Tools -->
<svg fill="#000000" height="800px" width="800px" version="1.1" id="Layer_1" xmlns="http://www.w3.org/2000/svg" xmlns:xlink="http://www.w3.org/1999/xlink" 
	 viewBox="0 0 512 512" xml:space="preserve">
<g>
	<g>
		<g>
			<path d="M490.667,0.001H21.333C9.551,0.001,0,9.552,0,21.334v298.667v85.333c0,11.782,9.551,21.333,21.333,21.333H180.24
				c-1.864,13.54-7.223,28.443-12.393,32.289l-14.604,10.852c-17.426,12.762-9.526,42.19,13.727,42.19h177.877
				c23.176,0,31.133-29.276,13.746-42.192l-14.594-10.839c-5.142-3.82-10.452-18.732-12.273-32.301h158.941
				c11.782,0,21.333-9.551,21.333-21.333v-85.333V21.334C512,9.552,502.449,0.001,490.667,0.001z M42.667,42.668h426.667v256H42.667
				V42.668z M300.232,469.332H211.64c6.264-12.825,10.34-28.154,11.56-42.665h65.574
				C289.964,441.183,293.999,456.51,300.232,469.332z M311.041,384.001c-0.024,0-0.048-0.002-0.072-0.002H201.039
				c-0.024,0-0.048,0.002-0.072,0.002H42.667v-42.667h426.667v42.667H311.041z"/>
			<path d="M411.582,70.247l-36.418,36.418h-76.497c-11.782,0-21.333,9.551-21.333,21.333c0,11.782,9.551,21.333,21.333,21.333
				h33.83l-55.163,55.163l-27.582-27.582c-8.331-8.331-21.839-8.331-30.17,0s-8.331,21.839,0,30.17l42.667,42.667
				c8.331,8.331,21.839,8.331,30.17,0l70.248-70.248v33.83c0,11.782,9.551,21.333,21.333,21.333
				c11.782,0,21.333-9.551,21.333-21.333v-76.497l36.418-36.418c8.331-8.331,8.331-21.839,0-30.17
				C433.42,61.916,419.913,61.916,411.582,70.247z"/>
			<path d="M149.333,63.999c-35.355,0-64,28.645-64,64s28.645,64,64,64s64-28.645,64-64S184.689,63.999,149.333,63.999z
				 M149.333,149.332c-11.791,0-21.333-9.542-21.333-21.333s9.542-21.333,21.333-21.333s21.333,9.542,21.333,21.333
				S161.125,149.332,149.333,149.332z"/>
		</g>
	</g>
</g>
</svg>